<svg width="4297" height="480" viewBox="0 0 4297 480" fill="none" xmlns="http://www.w3.org/2000/svg">
<path fill-rule="evenodd" clip-rule="evenodd" d="M0 130.031L143.233 108.36C286.467 86.6876 572.933 43.3438 859.4 26.0063C1145.87 8.66877 1432.33 17.3375 1718.8 39.0094C2005.27 60.6814 2307.85 90.6608 2594.31 116.667C2880.78 142.673 3147.55 161.731 3437.6 143.035C3724.07 121.363 4010.53 60.6814 4153.77 30.3407L4297 0V42.2673L4153.77 73.9678C4060.35 91.0374 4141.31 76.8128 3877.26 125.176C3613.22 173.54 3481.04 188.759 3162.34 196.706C2878.04 203.795 1773.21 80.5648 1492.12 69.9037C1268.32 61.4155 1215.08 50.3327 894.274 69.9037C607.808 87.3796 587.568 92.4668 465.82 108.36L175.617 143.035L0 167.444V130.031Z" fill="#4285F4"/>
<path fill-rule="evenodd" clip-rule="evenodd" d="M0 229.031L143.233 207.36C286.467 185.688 572.933 142.344 859.4 125.006C1145.87 107.669 1432.33 116.338 1718.8 138.009C2005.27 159.681 2307.85 189.661 2594.31 215.667C2880.78 241.673 3147.55 260.731 3437.6 242.035C3724.07 220.363 4010.53 159.681 4153.77 129.341L4297 99V141.267L4153.77 172.968C4060.35 190.037 4141.31 175.813 3877.26 224.176C3613.22 272.54 3481.04 287.759 3162.34 295.706C2878.04 302.795 1773.21 179.565 1492.12 168.904C1268.32 160.416 1215.08 149.333 894.274 168.904C607.808 186.38 587.568 191.467 465.82 207.36L175.617 242.035L0 266.444V229.031Z" fill="#EA4335"/>
<path fill-rule="evenodd" clip-rule="evenodd" d="M0 327.031L143.233 305.36C286.467 283.688 572.933 240.344 859.4 223.006C1145.87 205.669 1432.33 214.338 1718.8 236.009C2005.27 257.681 2307.85 287.661 2594.31 313.667C2880.78 339.673 3147.55 358.731 3437.6 340.035C3724.07 318.363 4010.53 257.681 4153.77 227.341L4297 197V239.267L4153.77 270.968C4060.35 288.037 4141.31 273.813 3877.26 322.176C3613.22 370.54 3481.04 385.759 3162.34 393.706C2878.04 400.795 1773.21 277.565 1492.12 266.904C1268.32 258.416 1215.08 247.333 894.274 266.904C607.808 284.38 587.568 289.467 465.82 305.36L175.617 340.035L0 364.444V327.031Z" fill="#34AB53"/>
<path fill-rule="evenodd" clip-rule="evenodd" d="M0 413.031L143.233 391.36C286.467 369.688 572.933 326.344 859.4 309.006C1145.87 291.669 1432.33 300.338 1718.8 322.009C2005.27 343.681 2307.85 373.661 2594.31 399.667C2880.78 425.673 3147.55 444.731 3437.6 426.035C3724.07 404.363 4010.53 343.681 4153.77 313.341L4297 283V325.267L4153.77 356.968C4060.35 374.037 4141.31 359.813 3877.26 408.176C3613.22 456.54 3481.04 471.759 3162.34 479.706C2878.04 486.795 1773.21 363.565 1492.12 352.904C1268.32 344.416 1215.08 333.333 894.274 352.904C607.808 370.38 587.568 375.467 465.82 391.36L175.617 426.035L0 450.444V413.031Z" fill="#FBBC05"/>
</svg>
